<mxfile host="65bd71144e">
    <diagram id="C5RBs43oDa-KdzZeNtuy" name="Page-1">
        <mxGraphModel dx="1533" dy="1440" grid="1" gridSize="10" guides="1" tooltips="1" connect="1" arrows="1" fold="1" page="0" pageScale="1" pageWidth="827" pageHeight="1169" math="0" shadow="0">
            <root>
                <mxCell id="WIyWlLk6GJQsqaUBKTNV-0"/>
                <mxCell id="WIyWlLk6GJQsqaUBKTNV-1" parent="WIyWlLk6GJQsqaUBKTNV-0"/>
                <mxCell id="29" value="" style="edgeStyle=none;html=1;exitX=-0.002;exitY=0.164;exitDx=0;exitDy=0;exitPerimeter=0;entryX=1;entryY=0.5;entryDx=0;entryDy=0;" edge="1" parent="WIyWlLk6GJQsqaUBKTNV-1" source="Xf3_xlvAg4x76wI3j-Gh-11" target="32">
                    <mxGeometry relative="1" as="geometry"/>
                </mxCell>
                <mxCell id="Xf3_xlvAg4x76wI3j-Gh-10" value="songPreviewTemplate" style="swimlane;fontStyle=0;childLayout=stackLayout;horizontal=1;startSize=40;fillColor=none;horizontalStack=0;resizeParent=1;resizeParentMax=0;resizeLast=0;collapsible=1;marginBottom=0;" parent="WIyWlLk6GJQsqaUBKTNV-1" vertex="1">
                    <mxGeometry x="330" y="830" width="300" height="290" as="geometry">
                        <mxRectangle x="300" y="720" width="100" height="30" as="alternateBounds"/>
                    </mxGeometry>
                </mxCell>
                <mxCell id="Xf3_xlvAg4x76wI3j-Gh-11" value="+ construcor: method" style="text;strokeColor=default;fillColor=none;align=left;verticalAlign=top;spacingLeft=4;spacingRight=4;overflow=hidden;rotatable=0;points=[[0,0.5],[1,0.5]];portConstraint=eastwest;" parent="Xf3_xlvAg4x76wI3j-Gh-10" vertex="1">
                    <mxGeometry y="40" width="300" height="30" as="geometry"/>
                </mxCell>
                <mxCell id="Xf3_xlvAg4x76wI3j-Gh-12" value="+ template method" style="text;strokeColor=default;fillColor=none;align=left;verticalAlign=top;spacingLeft=4;spacingRight=4;overflow=hidden;rotatable=0;points=[[0,0.5],[1,0.5]];portConstraint=eastwest;sketch=1;curveFitting=1;jiggle=2;strokeWidth=1;perimeterSpacing=1;" parent="Xf3_xlvAg4x76wI3j-Gh-10" vertex="1">
                    <mxGeometry y="70" width="300" height="30" as="geometry"/>
                </mxCell>
                <mxCell id="Xf3_xlvAg4x76wI3j-Gh-13" value="+ updateAudioPreviewAudioTime: method" style="text;strokeColor=default;fillColor=none;align=left;verticalAlign=top;spacingLeft=4;spacingRight=4;overflow=hidden;rotatable=0;points=[[0,0.5],[1,0.5]];portConstraint=eastwest;whiteSpace=wrap;" parent="Xf3_xlvAg4x76wI3j-Gh-10" vertex="1">
                    <mxGeometry y="100" width="300" height="38" as="geometry"/>
                </mxCell>
                <mxCell id="52" value="+ play: method" style="text;strokeColor=default;fillColor=none;align=left;verticalAlign=top;spacingLeft=4;spacingRight=4;overflow=hidden;rotatable=0;points=[[0,0.5],[1,0.5]];portConstraint=eastwest;whiteSpace=wrap;" vertex="1" parent="Xf3_xlvAg4x76wI3j-Gh-10">
                    <mxGeometry y="138" width="300" height="38" as="geometry"/>
                </mxCell>
                <mxCell id="58" value="+ playNext: method" style="text;strokeColor=default;fillColor=none;align=left;verticalAlign=top;spacingLeft=4;spacingRight=4;overflow=hidden;rotatable=0;points=[[0,0.5],[1,0.5]];portConstraint=eastwest;whiteSpace=wrap;" vertex="1" parent="Xf3_xlvAg4x76wI3j-Gh-10">
                    <mxGeometry y="176" width="300" height="38" as="geometry"/>
                </mxCell>
                <mxCell id="64" value="+ addToPlaylistInit: method" style="text;strokeColor=default;fillColor=none;align=left;verticalAlign=top;spacingLeft=4;spacingRight=4;overflow=hidden;rotatable=0;points=[[0,0.5],[1,0.5]];portConstraint=eastwest;whiteSpace=wrap;" vertex="1" parent="Xf3_xlvAg4x76wI3j-Gh-10">
                    <mxGeometry y="214" width="300" height="38" as="geometry"/>
                </mxCell>
                <mxCell id="77" value="+ addSongToPlaylist: method" style="text;strokeColor=default;fillColor=none;align=left;verticalAlign=top;spacingLeft=4;spacingRight=4;overflow=hidden;rotatable=0;points=[[0,0.5],[1,0.5]];portConstraint=eastwest;whiteSpace=wrap;" vertex="1" parent="Xf3_xlvAg4x76wI3j-Gh-10">
                    <mxGeometry y="252" width="300" height="38" as="geometry"/>
                </mxCell>
                <mxCell id="0" value="&lt;h1&gt;Classes&lt;/h1&gt;" style="text;html=1;strokeColor=none;fillColor=none;spacing=5;spacingTop=-20;whiteSpace=wrap;overflow=hidden;rounded=0;" vertex="1" parent="WIyWlLk6GJQsqaUBKTNV-1">
                    <mxGeometry x="300" y="530" width="190" height="40" as="geometry"/>
                </mxCell>
                <mxCell id="23" value="" style="edgeStyle=none;html=1;exitX=0.5;exitY=0;exitDx=0;exitDy=0;" edge="1" parent="WIyWlLk6GJQsqaUBKTNV-1" source="Xf3_xlvAg4x76wI3j-Gh-10" target="22">
                    <mxGeometry relative="1" as="geometry"/>
                </mxCell>
                <mxCell id="22" value="This class represents a song, it has information of the song, the audio element of the song and an html element with buttons to interact with the song.&amp;nbsp;" style="whiteSpace=wrap;html=1;fillColor=none;sketch=0;fontStyle=0;startSize=40;" vertex="1" parent="WIyWlLk6GJQsqaUBKTNV-1">
                    <mxGeometry x="377" y="670" width="206" height="80" as="geometry"/>
                </mxCell>
                <mxCell id="25" value="" style="swimlane;fontStyle=0;childLayout=stackLayout;horizontal=1;startSize=0;fillColor=none;horizontalStack=0;resizeParent=1;resizeParentMax=0;resizeLast=0;collapsible=1;marginBottom=0;html=1;" vertex="1" parent="WIyWlLk6GJQsqaUBKTNV-1">
                    <mxGeometry x="50" y="590" width="210" height="170" as="geometry">
                        <mxRectangle x="110" y="560" width="100" height="30" as="alternateBounds"/>
                    </mxGeometry>
                </mxCell>
                <mxCell id="26" value="construcor: method" style="text;strokeColor=none;fillColor=none;align=left;verticalAlign=top;spacingLeft=4;spacingRight=4;overflow=hidden;rotatable=0;points=[[0,0.5],[1,0.5]];portConstraint=eastwest;fontColor=#FF9999;" vertex="1" parent="25">
                    <mxGeometry width="210" height="26" as="geometry"/>
                </mxCell>
                <mxCell id="31" value="+ queryIndex: int &#10;(The position of the song in the music que)" style="text;strokeColor=none;fillColor=none;align=left;verticalAlign=top;spacingLeft=4;spacingRight=4;overflow=hidden;rotatable=0;points=[[0,0.5],[1,0.5]];portConstraint=eastwest;labelBackgroundColor=none;whiteSpace=wrap;" vertex="1" parent="25">
                    <mxGeometry y="26" width="210" height="54" as="geometry"/>
                </mxCell>
                <mxCell id="32" value="+ info: json&#10;(The song information of the song)" style="text;strokeColor=none;fillColor=none;align=left;verticalAlign=top;spacingLeft=4;spacingRight=4;overflow=hidden;rotatable=0;points=[[0,0.5],[1,0.5]];portConstraint=eastwest;whiteSpace=wrap;" vertex="1" parent="25">
                    <mxGeometry y="80" width="210" height="40" as="geometry"/>
                </mxCell>
                <mxCell id="27" value="+ songPreviewObject: HTMLElement&#10;(The HTML element that is shown to the user)" style="text;strokeColor=none;fillColor=none;align=left;verticalAlign=top;spacingLeft=4;spacingRight=4;overflow=hidden;rotatable=0;points=[[0,0.5],[1,0.5]];portConstraint=eastwest;whiteSpace=wrap;" vertex="1" parent="25">
                    <mxGeometry y="120" width="210" height="50" as="geometry"/>
                </mxCell>
                <mxCell id="39" value="" style="edgeStyle=none;orthogonalLoop=1;jettySize=auto;html=1;fontColor=#FF9999;entryX=0;entryY=0.5;entryDx=0;entryDy=0;exitX=0.571;exitY=0;exitDx=0;exitDy=0;exitPerimeter=0;" edge="1" parent="WIyWlLk6GJQsqaUBKTNV-1" source="42" target="Xf3_xlvAg4x76wI3j-Gh-12">
                    <mxGeometry width="100" relative="1" as="geometry">
                        <mxPoint x="110" y="940" as="sourcePoint"/>
                        <mxPoint x="370" y="960" as="targetPoint"/>
                        <Array as="points"/>
                    </mxGeometry>
                </mxCell>
                <mxCell id="41" value="" style="swimlane;fontStyle=0;childLayout=stackLayout;horizontal=1;startSize=0;fillColor=none;horizontalStack=0;resizeParent=1;resizeParentMax=0;resizeLast=0;collapsible=1;marginBottom=0;html=1;" vertex="1" parent="WIyWlLk6GJQsqaUBKTNV-1">
                    <mxGeometry x="-230" y="710" width="210" height="110" as="geometry">
                        <mxRectangle x="110" y="560" width="100" height="30" as="alternateBounds"/>
                    </mxGeometry>
                </mxCell>
                <mxCell id="42" value="template: method" style="text;strokeColor=none;fillColor=none;align=left;verticalAlign=top;spacingLeft=4;spacingRight=4;overflow=hidden;rotatable=0;points=[[0,0.5],[1,0.5]];portConstraint=eastwest;fontColor=#FF9999;" vertex="1" parent="41">
                    <mxGeometry width="210" height="26" as="geometry"/>
                </mxCell>
                <mxCell id="43" value="return: HTMLElement&#10;(This method returns the HTMLElement object that represents this song preview class, in this case the this.songPreviewObject Element)" style="text;strokeColor=none;fillColor=none;align=left;verticalAlign=top;spacingLeft=4;spacingRight=4;overflow=hidden;rotatable=0;points=[[0,0.5],[1,0.5]];portConstraint=eastwest;labelBackgroundColor=none;whiteSpace=wrap;" vertex="1" parent="41">
                    <mxGeometry y="26" width="210" height="84" as="geometry"/>
                </mxCell>
                <mxCell id="48" value="" style="swimlane;fontStyle=0;childLayout=stackLayout;horizontal=1;startSize=0;fillColor=none;horizontalStack=0;resizeParent=1;resizeParentMax=0;resizeLast=0;collapsible=1;marginBottom=0;html=1;" vertex="1" parent="WIyWlLk6GJQsqaUBKTNV-1">
                    <mxGeometry x="-130" y="890" width="230" height="90" as="geometry">
                        <mxRectangle x="110" y="560" width="100" height="30" as="alternateBounds"/>
                    </mxGeometry>
                </mxCell>
                <mxCell id="49" value="updateAudioPreviewAudioTime: method" style="text;strokeColor=none;fillColor=none;align=left;verticalAlign=top;spacingLeft=4;spacingRight=4;overflow=hidden;rotatable=0;points=[[0,0.5],[1,0.5]];portConstraint=eastwest;fontColor=#FF9999;" vertex="1" parent="48">
                    <mxGeometry width="230" height="26" as="geometry"/>
                </mxCell>
                <mxCell id="50" value="Updates the duration time for the audio preview element as soon as the audio's metadata is loaded" style="text;strokeColor=none;fillColor=none;align=left;verticalAlign=top;spacingLeft=4;spacingRight=4;overflow=hidden;rotatable=0;points=[[0,0.5],[1,0.5]];portConstraint=eastwest;labelBackgroundColor=none;whiteSpace=wrap;" vertex="1" parent="48">
                    <mxGeometry y="26" width="230" height="64" as="geometry"/>
                </mxCell>
                <mxCell id="51" value="" style="edgeStyle=none;orthogonalLoop=1;jettySize=auto;html=1;fontColor=#FF9999;entryX=0.042;entryY=0.474;entryDx=0;entryDy=0;exitX=0.471;exitY=-0.056;exitDx=0;exitDy=0;exitPerimeter=0;entryPerimeter=0;" edge="1" parent="WIyWlLk6GJQsqaUBKTNV-1" source="49" target="Xf3_xlvAg4x76wI3j-Gh-13">
                    <mxGeometry width="100" relative="1" as="geometry">
                        <mxPoint x="159.99999999999986" y="939.9999999999998" as="sourcePoint"/>
                        <mxPoint x="469.09000000000026" y="989.0000000000002" as="targetPoint"/>
                        <Array as="points"/>
                    </mxGeometry>
                </mxCell>
                <mxCell id="53" value="" style="swimlane;fontStyle=0;childLayout=stackLayout;horizontal=1;startSize=0;fillColor=none;horizontalStack=0;resizeParent=1;resizeParentMax=0;resizeLast=0;collapsible=1;marginBottom=0;html=1;" vertex="1" parent="WIyWlLk6GJQsqaUBKTNV-1">
                    <mxGeometry x="-100" y="1030" width="230" height="224" as="geometry">
                        <mxRectangle x="110" y="560" width="100" height="30" as="alternateBounds"/>
                    </mxGeometry>
                </mxCell>
                <mxCell id="54" value="play: method" style="text;strokeColor=none;fillColor=none;align=left;verticalAlign=top;spacingLeft=4;spacingRight=4;overflow=hidden;rotatable=0;points=[[0,0.5],[1,0.5]];portConstraint=eastwest;fontColor=#FF9999;" vertex="1" parent="53">
                    <mxGeometry width="230" height="26" as="geometry"/>
                </mxCell>
                <mxCell id="56" value="Arguments: elClass&#10;elClass represents the class that you want to play the audio for, its basically &quot;this&quot; because the play() method will be called in a click event made on the songPeview element's button, and &quot;this&quot; in events refers to the window element and not the class" style="text;strokeColor=none;fillColor=none;align=left;verticalAlign=top;spacingLeft=4;spacingRight=4;overflow=hidden;rotatable=0;points=[[0,0.5],[1,0.5]];portConstraint=eastwest;labelBackgroundColor=none;whiteSpace=wrap;" vertex="1" parent="53">
                    <mxGeometry y="26" width="230" height="134" as="geometry"/>
                </mxCell>
                <mxCell id="55" value="Play/pause the song based on the class's songPreviewAudioElement state" style="text;strokeColor=none;fillColor=none;align=left;verticalAlign=top;spacingLeft=4;spacingRight=4;overflow=hidden;rotatable=0;points=[[0,0.5],[1,0.5]];portConstraint=eastwest;labelBackgroundColor=none;whiteSpace=wrap;" vertex="1" parent="53">
                    <mxGeometry y="160" width="230" height="64" as="geometry"/>
                </mxCell>
                <mxCell id="57" value="" style="edgeStyle=none;orthogonalLoop=1;jettySize=auto;html=1;fontColor=#FF9999;entryX=0;entryY=0.5;entryDx=0;entryDy=0;exitX=0.412;exitY=0.004;exitDx=0;exitDy=0;exitPerimeter=0;" edge="1" parent="WIyWlLk6GJQsqaUBKTNV-1" source="54" target="52">
                    <mxGeometry width="100" relative="1" as="geometry">
                        <mxPoint x="189.99999999999977" y="1111.99" as="sourcePoint"/>
                        <mxPoint x="340.0799999999999" y="1010.002" as="targetPoint"/>
                        <Array as="points"/>
                    </mxGeometry>
                </mxCell>
                <mxCell id="59" value="" style="swimlane;fontStyle=0;childLayout=stackLayout;horizontal=1;startSize=0;fillColor=none;horizontalStack=0;resizeParent=1;resizeParentMax=0;resizeLast=0;collapsible=1;marginBottom=0;html=1;" vertex="1" parent="WIyWlLk6GJQsqaUBKTNV-1">
                    <mxGeometry x="230" y="1240" width="230" height="224" as="geometry">
                        <mxRectangle x="110" y="560" width="100" height="30" as="alternateBounds"/>
                    </mxGeometry>
                </mxCell>
                <mxCell id="60" value="playNext: method" style="text;strokeColor=none;fillColor=none;align=left;verticalAlign=top;spacingLeft=4;spacingRight=4;overflow=hidden;rotatable=0;points=[[0,0.5],[1,0.5]];portConstraint=eastwest;fontColor=#FF9999;" vertex="1" parent="59">
                    <mxGeometry width="230" height="26" as="geometry"/>
                </mxCell>
                <mxCell id="61" value="Arguments: elClass&#10;elClass represents the class that this method belongs to, its basically &quot;this&quot; because the playNext() method will be called in an onended event evoked on the songPeviewAudioElement, and &quot;this&quot; in events refers to the window element and not the class" style="text;strokeColor=none;fillColor=none;align=left;verticalAlign=top;spacingLeft=4;spacingRight=4;overflow=hidden;rotatable=0;points=[[0,0.5],[1,0.5]];portConstraint=eastwest;labelBackgroundColor=none;whiteSpace=wrap;" vertex="1" parent="59">
                    <mxGeometry y="26" width="230" height="134" as="geometry"/>
                </mxCell>
                <mxCell id="62" value="Play the next song in the queue using queue[quee.indexOf(elClass)+1].play()" style="text;strokeColor=none;fillColor=none;align=left;verticalAlign=top;spacingLeft=4;spacingRight=4;overflow=hidden;rotatable=0;points=[[0,0.5],[1,0.5]];portConstraint=eastwest;labelBackgroundColor=none;whiteSpace=wrap;" vertex="1" parent="59">
                    <mxGeometry y="160" width="230" height="64" as="geometry"/>
                </mxCell>
                <mxCell id="63" value="" style="edgeStyle=none;orthogonalLoop=1;jettySize=auto;html=1;fontColor=#FF9999;entryX=0;entryY=0.5;entryDx=0;entryDy=0;exitX=0.438;exitY=-0.013;exitDx=0;exitDy=0;exitPerimeter=0;" edge="1" parent="WIyWlLk6GJQsqaUBKTNV-1" source="60" target="58">
                    <mxGeometry width="100" relative="1" as="geometry">
                        <mxPoint x="249.99999999999977" y="1280" as="sourcePoint"/>
                        <mxPoint x="390" y="1155.0099999999998" as="targetPoint"/>
                        <Array as="points"/>
                    </mxGeometry>
                </mxCell>
                <mxCell id="69" value="" style="swimlane;fontStyle=0;childLayout=stackLayout;horizontal=1;startSize=0;fillColor=none;horizontalStack=0;resizeParent=1;resizeParentMax=0;resizeLast=0;collapsible=1;marginBottom=0;html=1;" vertex="1" parent="WIyWlLk6GJQsqaUBKTNV-1">
                    <mxGeometry x="590" y="1280" width="230" height="224" as="geometry">
                        <mxRectangle x="110" y="560" width="100" height="30" as="alternateBounds"/>
                    </mxGeometry>
                </mxCell>
                <mxCell id="70" value="addToPlaylistInit: method" style="text;strokeColor=none;fillColor=none;align=left;verticalAlign=top;spacingLeft=4;spacingRight=4;overflow=hidden;rotatable=0;points=[[0,0.5],[1,0.5]];portConstraint=eastwest;fontColor=#FF9999;" vertex="1" parent="69">
                    <mxGeometry width="230" height="26" as="geometry"/>
                </mxCell>
                <mxCell id="71" value="Arguments: elClass&#10;elClass represents the class that this method belongs to, its basically &quot;this&quot; because the addToPlaylistInit() method will be called in an onclick event evoked from a button click, and &quot;this&quot; in events refers to the window element and not the class" style="text;strokeColor=none;fillColor=none;align=left;verticalAlign=top;spacingLeft=4;spacingRight=4;overflow=hidden;rotatable=0;points=[[0,0.5],[1,0.5]];portConstraint=eastwest;labelBackgroundColor=none;whiteSpace=wrap;" vertex="1" parent="69">
                    <mxGeometry y="26" width="230" height="134" as="geometry"/>
                </mxCell>
                <mxCell id="72" value="Generate and show a addToPlaylistMenu personalized for the passed in elClass" style="text;strokeColor=none;fillColor=none;align=left;verticalAlign=top;spacingLeft=4;spacingRight=4;overflow=hidden;rotatable=0;points=[[0,0.5],[1,0.5]];portConstraint=eastwest;labelBackgroundColor=none;whiteSpace=wrap;" vertex="1" parent="69">
                    <mxGeometry y="160" width="230" height="64" as="geometry"/>
                </mxCell>
                <mxCell id="73" value="" style="swimlane;fontStyle=0;childLayout=stackLayout;horizontal=1;startSize=0;fillColor=none;horizontalStack=0;resizeParent=1;resizeParentMax=0;resizeLast=0;collapsible=1;marginBottom=0;html=1;" vertex="1" parent="WIyWlLk6GJQsqaUBKTNV-1">
                    <mxGeometry x="880" y="750" width="230" height="164" as="geometry">
                        <mxRectangle x="110" y="560" width="100" height="30" as="alternateBounds"/>
                    </mxGeometry>
                </mxCell>
                <mxCell id="74" value="addSongToPlaylist: method" style="text;strokeColor=none;fillColor=none;align=left;verticalAlign=top;spacingLeft=4;spacingRight=4;overflow=hidden;rotatable=0;points=[[0,0.5],[1,0.5]];portConstraint=eastwest;fontColor=#FF9999;" vertex="1" parent="73">
                    <mxGeometry width="230" height="26" as="geometry"/>
                </mxCell>
                <mxCell id="75" value="Arguments: playlistInfo&#10;playlistInfo represents a json object that has information of the playlist you want to add this song to" style="text;strokeColor=none;fillColor=none;align=left;verticalAlign=top;spacingLeft=4;spacingRight=4;overflow=hidden;rotatable=0;points=[[0,0.5],[1,0.5]];portConstraint=eastwest;labelBackgroundColor=none;whiteSpace=wrap;" vertex="1" parent="73">
                    <mxGeometry y="26" width="230" height="74" as="geometry"/>
                </mxCell>
                <mxCell id="76" value="Send an api request to the backend and add this song to the parsed playlist" style="text;strokeColor=none;fillColor=none;align=left;verticalAlign=top;spacingLeft=4;spacingRight=4;overflow=hidden;rotatable=0;points=[[0,0.5],[1,0.5]];portConstraint=eastwest;labelBackgroundColor=none;whiteSpace=wrap;" vertex="1" parent="73">
                    <mxGeometry y="100" width="230" height="64" as="geometry"/>
                </mxCell>
                <mxCell id="78" value="" style="edgeStyle=none;orthogonalLoop=1;jettySize=auto;html=1;fontColor=#FF9999;entryX=0.339;entryY=1.01;entryDx=0;entryDy=0;exitX=0.413;exitY=-0.049;exitDx=0;exitDy=0;exitPerimeter=0;entryPerimeter=0;" edge="1" parent="WIyWlLk6GJQsqaUBKTNV-1" source="70" target="77">
                    <mxGeometry width="100" relative="1" as="geometry">
                        <mxPoint x="303.74" y="1270.0019999999997" as="sourcePoint"/>
                        <mxPoint x="583" y="1055.34" as="targetPoint"/>
                        <Array as="points"/>
                    </mxGeometry>
                </mxCell>
                <mxCell id="79" value="" style="edgeStyle=none;orthogonalLoop=1;jettySize=auto;html=1;fontColor=#FF9999;entryX=0.887;entryY=1.01;entryDx=0;entryDy=0;exitX=0.42;exitY=-0.147;exitDx=0;exitDy=0;exitPerimeter=0;entryPerimeter=0;" edge="1" parent="WIyWlLk6GJQsqaUBKTNV-1" source="74" target="77">
                    <mxGeometry width="100" relative="1" as="geometry">
                        <mxPoint x="540" y="1237.7459999999996" as="sourcePoint"/>
                        <mxPoint x="606.4100000000001" y="1100.0020000000004" as="targetPoint"/>
                        <Array as="points"/>
                    </mxGeometry>
                </mxCell>
                <mxCell id="80" value="playlistPreviewTemplate" style="swimlane;fontStyle=0;childLayout=stackLayout;horizontal=1;startSize=40;fillColor=none;horizontalStack=0;resizeParent=1;resizeParentMax=0;resizeLast=0;collapsible=1;marginBottom=0;" vertex="1" parent="WIyWlLk6GJQsqaUBKTNV-1">
                    <mxGeometry x="340" y="1910" width="300" height="100" as="geometry">
                        <mxRectangle x="300" y="720" width="100" height="30" as="alternateBounds"/>
                    </mxGeometry>
                </mxCell>
                <mxCell id="81" value="+ construcor: method" style="text;strokeColor=default;fillColor=none;align=left;verticalAlign=top;spacingLeft=4;spacingRight=4;overflow=hidden;rotatable=0;points=[[0,0.5],[1,0.5]];portConstraint=eastwest;" vertex="1" parent="80">
                    <mxGeometry y="40" width="300" height="30" as="geometry"/>
                </mxCell>
                <mxCell id="82" value="+ template: method" style="text;strokeColor=default;fillColor=none;align=left;verticalAlign=top;spacingLeft=4;spacingRight=4;overflow=hidden;rotatable=0;points=[[0,0.5],[1,0.5]];portConstraint=eastwest;sketch=1;curveFitting=1;jiggle=2;strokeWidth=1;perimeterSpacing=1;" vertex="1" parent="80">
                    <mxGeometry y="70" width="300" height="30" as="geometry"/>
                </mxCell>
                <mxCell id="88" value="" style="edgeStyle=none;html=1;exitX=0.5;exitY=0;exitDx=0;exitDy=0;" edge="1" parent="WIyWlLk6GJQsqaUBKTNV-1" source="80" target="89">
                    <mxGeometry relative="1" as="geometry"/>
                </mxCell>
                <mxCell id="89" value="This class represents a playlist preview object, it has information of the playlist and an html element that redirects you to the playlist page when clicked.&amp;nbsp;" style="whiteSpace=wrap;html=1;fillColor=none;sketch=0;fontStyle=0;startSize=40;" vertex="1" parent="WIyWlLk6GJQsqaUBKTNV-1">
                    <mxGeometry x="387" y="1750" width="206" height="80" as="geometry"/>
                </mxCell>
                <mxCell id="90" value="" style="swimlane;fontStyle=0;childLayout=stackLayout;horizontal=1;startSize=0;fillColor=none;horizontalStack=0;resizeParent=1;resizeParentMax=0;resizeLast=0;collapsible=1;marginBottom=0;html=1;" vertex="1" parent="WIyWlLk6GJQsqaUBKTNV-1">
                    <mxGeometry x="-30" y="1790" width="210" height="116" as="geometry">
                        <mxRectangle x="110" y="560" width="100" height="30" as="alternateBounds"/>
                    </mxGeometry>
                </mxCell>
                <mxCell id="91" value="construcor: method" style="text;strokeColor=none;fillColor=none;align=left;verticalAlign=top;spacingLeft=4;spacingRight=4;overflow=hidden;rotatable=0;points=[[0,0.5],[1,0.5]];portConstraint=eastwest;fontColor=#FF9999;" vertex="1" parent="90">
                    <mxGeometry width="210" height="26" as="geometry"/>
                </mxCell>
                <mxCell id="93" value="+ info: json&#10;(The playlist information)" style="text;strokeColor=none;fillColor=none;align=left;verticalAlign=top;spacingLeft=4;spacingRight=4;overflow=hidden;rotatable=0;points=[[0,0.5],[1,0.5]];portConstraint=eastwest;whiteSpace=wrap;" vertex="1" parent="90">
                    <mxGeometry y="26" width="210" height="40" as="geometry"/>
                </mxCell>
                <mxCell id="94" value="+ playlistPreviewObject: HTMLElement&#10;(The HTML element that is shown to the user)" style="text;strokeColor=none;fillColor=none;align=left;verticalAlign=top;spacingLeft=4;spacingRight=4;overflow=hidden;rotatable=0;points=[[0,0.5],[1,0.5]];portConstraint=eastwest;whiteSpace=wrap;" vertex="1" parent="90">
                    <mxGeometry y="66" width="210" height="50" as="geometry"/>
                </mxCell>
                <mxCell id="95" value="" style="swimlane;fontStyle=0;childLayout=stackLayout;horizontal=1;startSize=0;fillColor=none;horizontalStack=0;resizeParent=1;resizeParentMax=0;resizeLast=0;collapsible=1;marginBottom=0;html=1;" vertex="1" parent="WIyWlLk6GJQsqaUBKTNV-1">
                    <mxGeometry x="130" y="2080" width="210" height="130" as="geometry">
                        <mxRectangle x="110" y="560" width="100" height="30" as="alternateBounds"/>
                    </mxGeometry>
                </mxCell>
                <mxCell id="96" value="template: method" style="text;strokeColor=none;fillColor=none;align=left;verticalAlign=top;spacingLeft=4;spacingRight=4;overflow=hidden;rotatable=0;points=[[0,0.5],[1,0.5]];portConstraint=eastwest;fontColor=#FF9999;" vertex="1" parent="95">
                    <mxGeometry width="210" height="26" as="geometry"/>
                </mxCell>
                <mxCell id="97" value="return: HTMLElement&#10;(This method returns the HTMLElement object that represents this playlist preview class, in this case the this.playlistPreviewObject Element)" style="text;strokeColor=none;fillColor=none;align=left;verticalAlign=top;spacingLeft=4;spacingRight=4;overflow=hidden;rotatable=0;points=[[0,0.5],[1,0.5]];portConstraint=eastwest;labelBackgroundColor=none;whiteSpace=wrap;" vertex="1" parent="95">
                    <mxGeometry y="26" width="210" height="104" as="geometry"/>
                </mxCell>
                <mxCell id="98" value="" style="edgeStyle=none;orthogonalLoop=1;jettySize=auto;html=1;fontColor=#FF9999;entryX=0.033;entryY=0.333;entryDx=0;entryDy=0;exitX=1.003;exitY=0.251;exitDx=0;exitDy=0;exitPerimeter=0;entryPerimeter=0;" edge="1" parent="WIyWlLk6GJQsqaUBKTNV-1" source="94" target="81">
                    <mxGeometry width="100" relative="1" as="geometry">
                        <mxPoint x="119.99999999999999" y="1893.1039999999998" as="sourcePoint"/>
                        <mxPoint x="455.24" y="1850.0000000000002" as="targetPoint"/>
                        <Array as="points"/>
                    </mxGeometry>
                </mxCell>
                <mxCell id="100" value="" style="edgeStyle=none;orthogonalLoop=1;jettySize=auto;html=1;fontColor=#FF9999;entryX=0;entryY=0.5;entryDx=0;entryDy=0;exitX=0.547;exitY=0.03;exitDx=0;exitDy=0;exitPerimeter=0;" edge="1" parent="WIyWlLk6GJQsqaUBKTNV-1" source="96" target="82">
                    <mxGeometry width="100" relative="1" as="geometry">
                        <mxPoint x="290.0000000000001" y="2080" as="sourcePoint"/>
                        <mxPoint x="449.37" y="2146.45" as="targetPoint"/>
                        <Array as="points"/>
                    </mxGeometry>
                </mxCell>
                <mxCell id="107" value="pagePlaylistClass" style="swimlane;fontStyle=0;childLayout=stackLayout;horizontal=1;startSize=40;fillColor=none;horizontalStack=0;resizeParent=1;resizeParentMax=0;resizeLast=0;collapsible=1;marginBottom=0;" vertex="1" parent="WIyWlLk6GJQsqaUBKTNV-1">
                    <mxGeometry x="680" y="2370" width="300" height="100" as="geometry">
                        <mxRectangle x="300" y="720" width="100" height="30" as="alternateBounds"/>
                    </mxGeometry>
                </mxCell>
                <mxCell id="108" value="+ construcor: method" style="text;strokeColor=default;fillColor=none;align=left;verticalAlign=top;spacingLeft=4;spacingRight=4;overflow=hidden;rotatable=0;points=[[0,0.5],[1,0.5]];portConstraint=eastwest;" vertex="1" parent="107">
                    <mxGeometry y="40" width="300" height="30" as="geometry"/>
                </mxCell>
                <mxCell id="109" value="+ play: method" style="text;strokeColor=default;fillColor=none;align=left;verticalAlign=top;spacingLeft=4;spacingRight=4;overflow=hidden;rotatable=0;points=[[0,0.5],[1,0.5]];portConstraint=eastwest;sketch=1;curveFitting=1;jiggle=2;strokeWidth=1;perimeterSpacing=1;" vertex="1" parent="107">
                    <mxGeometry y="70" width="300" height="30" as="geometry"/>
                </mxCell>
                <mxCell id="110" value="" style="edgeStyle=none;html=1;exitX=0.5;exitY=0;exitDx=0;exitDy=0;" edge="1" parent="WIyWlLk6GJQsqaUBKTNV-1" source="107" target="111">
                    <mxGeometry relative="1" as="geometry"/>
                </mxCell>
                <mxCell id="111" value="This class represents the playlist beloging to the current /playlists/${playlistId} page." style="whiteSpace=wrap;html=1;fillColor=none;sketch=0;fontStyle=0;startSize=40;" vertex="1" parent="WIyWlLk6GJQsqaUBKTNV-1">
                    <mxGeometry x="727" y="2210" width="206" height="80" as="geometry"/>
                </mxCell>
                <mxCell id="112" value="" style="swimlane;fontStyle=0;childLayout=stackLayout;horizontal=1;startSize=0;fillColor=none;horizontalStack=0;resizeParent=1;resizeParentMax=0;resizeLast=0;collapsible=1;marginBottom=0;html=1;" vertex="1" parent="WIyWlLk6GJQsqaUBKTNV-1">
                    <mxGeometry x="380" y="2310" width="210" height="116" as="geometry">
                        <mxRectangle x="110" y="560" width="100" height="30" as="alternateBounds"/>
                    </mxGeometry>
                </mxCell>
                <mxCell id="113" value="construcor: method" style="text;strokeColor=none;fillColor=none;align=left;verticalAlign=top;spacingLeft=4;spacingRight=4;overflow=hidden;rotatable=0;points=[[0,0.5],[1,0.5]];portConstraint=eastwest;fontColor=#FF9999;" vertex="1" parent="112">
                    <mxGeometry width="210" height="26" as="geometry"/>
                </mxCell>
                <mxCell id="114" value="+ info: json&#10;(The playlist information)" style="text;strokeColor=none;fillColor=none;align=left;verticalAlign=top;spacingLeft=4;spacingRight=4;overflow=hidden;rotatable=0;points=[[0,0.5],[1,0.5]];portConstraint=eastwest;whiteSpace=wrap;" vertex="1" parent="112">
                    <mxGeometry y="26" width="210" height="40" as="geometry"/>
                </mxCell>
                <mxCell id="115" value="+ songs: array&#10;(An array of songPreviewTemplate Objects made up of this playlist's songs )" style="text;strokeColor=none;fillColor=none;align=left;verticalAlign=top;spacingLeft=4;spacingRight=4;overflow=hidden;rotatable=0;points=[[0,0.5],[1,0.5]];portConstraint=eastwest;whiteSpace=wrap;" vertex="1" parent="112">
                    <mxGeometry y="66" width="210" height="50" as="geometry"/>
                </mxCell>
                <mxCell id="116" value="" style="swimlane;fontStyle=0;childLayout=stackLayout;horizontal=1;startSize=0;fillColor=none;horizontalStack=0;resizeParent=1;resizeParentMax=0;resizeLast=0;collapsible=1;marginBottom=0;html=1;" vertex="1" parent="WIyWlLk6GJQsqaUBKTNV-1">
                    <mxGeometry x="660" y="2550" width="210" height="66" as="geometry">
                        <mxRectangle x="110" y="560" width="100" height="30" as="alternateBounds"/>
                    </mxGeometry>
                </mxCell>
                <mxCell id="117" value="play: method" style="text;strokeColor=none;fillColor=none;align=left;verticalAlign=top;spacingLeft=4;spacingRight=4;overflow=hidden;rotatable=0;points=[[0,0.5],[1,0.5]];portConstraint=eastwest;fontColor=#FF9999;" vertex="1" parent="116">
                    <mxGeometry width="210" height="26" as="geometry"/>
                </mxCell>
                <mxCell id="118" value="Play/pause the songs in this class's songs property" style="text;strokeColor=none;fillColor=none;align=left;verticalAlign=top;spacingLeft=4;spacingRight=4;overflow=hidden;rotatable=0;points=[[0,0.5],[1,0.5]];portConstraint=eastwest;whiteSpace=wrap;" vertex="1" parent="116">
                    <mxGeometry y="26" width="210" height="40" as="geometry"/>
                </mxCell>
                <mxCell id="120" value="" style="edgeStyle=none;orthogonalLoop=1;jettySize=auto;html=1;fontColor=#FF9999;entryX=0.002;entryY=-0.079;entryDx=0;entryDy=0;exitX=1;exitY=0.5;exitDx=0;exitDy=0;entryPerimeter=0;" edge="1" parent="WIyWlLk6GJQsqaUBKTNV-1" source="114" target="108">
                    <mxGeometry width="100" relative="1" as="geometry">
                        <mxPoint x="510.0000000000001" y="2334.56" as="sourcePoint"/>
                        <mxPoint x="679.2700000000001" y="2425.9999999999995" as="targetPoint"/>
                        <Array as="points"/>
                    </mxGeometry>
                </mxCell>
                <mxCell id="121" value="" style="edgeStyle=none;orthogonalLoop=1;jettySize=auto;html=1;fontColor=#FF9999;entryX=0.354;entryY=-0.049;entryDx=0;entryDy=0;exitX=0.202;exitY=0.656;exitDx=0;exitDy=0;entryPerimeter=0;exitPerimeter=0;" edge="1" parent="WIyWlLk6GJQsqaUBKTNV-1" source="109" target="117">
                    <mxGeometry width="100" relative="1" as="geometry">
                        <mxPoint x="636.4" y="2498.37" as="sourcePoint"/>
                        <mxPoint x="727.0000000000001" y="2549.9999999999995" as="targetPoint"/>
                        <Array as="points"/>
                    </mxGeometry>
                </mxCell>
            </root>
        </mxGraphModel>
    </diagram>
</mxfile>